<?xml version="1.0" standalone="no"?><!DOCTYPE svg PUBLIC "-//W3C//DTD SVG 1.1//EN" "http://www.w3.org/Graphics/SVG/1.1/DTD/svg11.dtd"><svg t="1602166569846" class="icon" viewBox="0 0 1024 1024" version="1.1" xmlns="http://www.w3.org/2000/svg" p-id="739" xmlns:xlink="http://www.w3.org/1999/xlink" width="128" height="128"><defs><style type="text/css"></style></defs><path d="M511.47119844 315.67278781m-283.67278781 0a283.67278781 283.67278781 0 1 0 567.34557562 0 283.67278781 283.67278781 0 1 0-567.34557562 0Z" fill="#ffffff" p-id="740"></path><path d="M785.52795969 597.74290437c-22.43739563-17.62938187-54.49081781-16.02671156-75.32554219 4.80801375-51.28547625 51.28547625-121.80300469 83.33889844-200.33389031 83.33889844s-149.04841406-32.05342219-200.33388938-83.33889844c-20.83472438-20.83472438-52.88814656-24.04006688-75.32554219-4.80801375C147.66485469 671.46577625 83.55801031 766.0233725 62.72328594 895.8397325c-8.01335531 52.88814656 28.84807969 96.1602675 83.3388975 96.1602675H878.48288469c52.88814656 0 91.35225375-43.27212 83.33889844-96.1602675-22.43739563-129.81636094-86.54424-224.37395625-176.29382344-298.09682813z" fill="#ffffff" p-id="741"></path></svg>