<?xml version="1.0" encoding="utf-8"?>
<!-- Generator: Adobe Illustrator 23.0.0, SVG Export Plug-In . SVG Version: 6.00 Build 0)  -->
<svg version="1.1" id="图层_1" xmlns="http://www.w3.org/2000/svg" xmlns:xlink="http://www.w3.org/1999/xlink" x="0px" y="0px"
	 viewBox="0 0 1024 1024" style="enable-background:new 0 0 1024 1024;" xml:space="preserve">
<style type="text/css">
	.st0{fill:url(#SVGID_1_);}
	.st1{clip-path:url(#SVGID_3_);}
	.st2{fill:#EEE0D2;}
	.st3{fill:#FCEDDF;}
	.st4{fill:#D9BD9B;}
	.st5{fill:#73CAA7;}
	.st6{fill:#FFFFFF;}
	.st7{fill:#F7C85F;}
	.st8{fill:#F7CC5E;}
	.st9{fill:#C42B23;}
</style>
<linearGradient id="SVGID_1_" gradientUnits="userSpaceOnUse" x1="512" y1="47" x2="512" y2="977">
	<stop  offset="0" style="stop-color:#EBE7E4"/>
	<stop  offset="1" style="stop-color:#D9BD9B"/>
</linearGradient>
<circle class="st0" cx="512" cy="512" r="465"/>
<g>
	<defs>
		<circle id="SVGID_2_" cx="512" cy="512" r="465"/>
	</defs>
	<clipPath id="SVGID_3_">
		<use xlink:href="#SVGID_2_"  style="overflow:visible;"/>
	</clipPath>
	<g class="st1">
		<path class="st2" d="M116.88,1211.3l1035.58-172.26c26.57-4.42,44.53-29.54,40.11-56.12l-135.59-815.1
			c-4.42-26.57-29.54-44.53-56.12-40.11l-160.52,26.7L42.26,1059.94l18.51,111.26C65.18,1197.77,90.31,1215.72,116.88,1211.3z"/>
		<g>
			<path class="st3" d="M-34.71,299.97c-26.57,4.42-44.53,29.54-40.11,56.12l117.08,703.85l798.09-905.52L-34.71,299.97z"/>
			<g>
				<g>
					<path class="st4" d="M286.57,528.91l-130.53,22.12c-12.44,2.11-24.24-6.27-26.35-18.71l-22.12-130.53
						c-2.11-12.44,6.27-24.24,18.71-26.35l130.53-22.12c12.44-2.11,24.24,6.27,26.35,18.71l22.12,130.53
						C307.39,515.01,299.02,526.8,286.57,528.91z"/>
					<path class="st4" d="M849.49,343.2l-483.21,81.89c-12.44,2.11-24.24-6.27-26.35-18.71l-7.24-42.73
						c-2.11-12.44,6.27-24.24,18.71-26.35l483.21-81.89c12.44-2.11,24.24,6.27,26.35,18.71l7.24,42.73
						C870.31,329.29,861.93,341.09,849.49,343.2z"/>
					<path class="st5" d="M655.98,466.31l-274.82,46.57c-12.44,2.11-24.24-6.27-26.35-18.71l-2.85-16.79
						c-2.11-12.44,6.27-24.24,18.71-26.35l274.82-46.57c12.44-2.11,24.24,6.27,26.35,18.71l2.85,16.79
						C676.81,452.4,668.43,464.2,655.98,466.31z"/>
					<path class="st6" d="M272.02,510.14L163.6,528.52c-7.15,1.21-13.93-3.6-15.14-10.75l-18.37-108.42
						c-1.21-7.15,3.6-13.93,10.75-15.14l108.42-18.37c7.15-1.21,13.93,3.6,15.14,10.75l18.37,108.42
						C283.98,502.16,279.17,508.93,272.02,510.14z"/>
					<g>
						<path class="st7" d="M234.03,478.01l6.29-11.29l-43.16-24.04c-4.9-2.73-11.69,0.11-15.16,6.34l0,0
							c-3.47,6.23-2.31,13.5,2.59,16.23l52.04,28.99C231.72,491.51,230.56,484.24,234.03,478.01z"/>
						<path class="st7" d="M304.49,372.42c-6.23-3.47-14.1-1.23-17.58,5l-49.01,87.96l11.29,6.29c6.23,3.47,8.47,11.34,5,17.58
							L309.49,390C312.96,383.76,310.73,375.89,304.49,372.42z"/>
						<path class="st7" d="M249.2,471.67l-11.29-6.29l-6.29,11.29c-3.47,6.23-1.23,14.1,5,17.58c6.23,3.47,14.1,1.24,17.58-5l0,0
							C257.67,483.01,255.43,475.14,249.2,471.67z"/>
					</g>
				</g>
				<g>
					<path class="st4" d="M323.24,745.31l-130.53,22.12c-12.44,2.11-24.24-6.27-26.35-18.71l-22.12-130.53
						c-2.11-12.44,6.27-24.24,18.71-26.35l130.53-22.12c12.44-2.11,24.24,6.27,26.35,18.71l22.12,130.53
						C344.07,731.4,335.69,743.2,323.24,745.31z"/>
					<path class="st4" d="M886.16,559.6l-483.21,81.89c-12.44,2.11-24.24-6.27-26.35-18.71l-7.24-42.73
						c-2.11-12.44,6.27-24.24,18.71-26.35l483.21-81.89c12.44-2.11,24.24,6.27,26.35,18.71l7.24,42.73
						C906.98,545.69,898.6,557.49,886.16,559.6z"/>
					<path class="st5" d="M692.65,682.71l-274.82,46.57c-12.44,2.11-24.24-6.27-26.35-18.71l-2.85-16.79
						c-2.11-12.44,6.27-24.24,18.71-26.35l274.82-46.57c12.44-2.11,24.24,6.27,26.35,18.71l2.85,16.79
						C713.48,668.8,705.1,680.6,692.65,682.71z"/>
					<path class="st6" d="M308.69,726.54l-108.42,18.37c-7.15,1.21-13.93-3.6-15.14-10.75l-18.37-108.42
						c-1.21-7.15,3.6-13.93,10.75-15.14l108.42-18.37c7.15-1.21,13.93,3.6,15.14,10.75l18.37,108.42
						C320.66,718.55,315.84,725.33,308.69,726.54z"/>
					<g>
						<path class="st7" d="M270.71,694.41l6.29-11.29l-43.16-24.04c-4.9-2.73-11.69,0.11-15.16,6.34l0,0
							c-3.47,6.23-2.31,13.5,2.59,16.23l52.04,28.99C268.39,707.91,267.23,700.64,270.71,694.41z"/>
						<path class="st7" d="M341.17,588.82c-6.23-3.47-14.1-1.23-17.58,5l-49.01,87.96l11.29,6.29c6.23,3.47,8.47,11.34,5,17.58
							l55.29-99.25C349.64,600.16,347.4,592.29,341.17,588.82z"/>
						<path class="st7" d="M285.87,688.07l-11.29-6.29l-6.29,11.29c-3.47,6.23-1.23,14.1,5,17.58s14.1,1.24,17.58-5l0,0
							C294.34,699.41,292.1,691.54,285.87,688.07z"/>
					</g>
				</g>
				<g>
					<path class="st4" d="M359.92,961.71l-130.53,22.12c-12.44,2.11-24.24-6.27-26.35-18.71l-22.12-130.53
						c-2.11-12.44,6.27-24.24,18.71-26.35l130.53-22.12c12.44-2.11,24.24,6.27,26.35,18.71l22.12,130.53
						C380.74,947.8,372.36,959.6,359.92,961.71z"/>
					<path class="st4" d="M922.83,775.99l-483.21,81.89c-12.44,2.11-24.24-6.27-26.35-18.71l-7.24-42.73
						c-2.11-12.44,6.27-24.24,18.71-26.35l483.21-81.89c12.44-2.11,24.24,6.27,26.35,18.71l7.24,42.73
						C943.66,762.09,935.28,773.89,922.83,775.99z"/>
					<path class="st5" d="M729.33,899.11L454.5,945.68c-12.44,2.11-24.24-6.27-26.35-18.71l-2.85-16.79
						c-2.11-12.44,6.27-24.24,18.71-26.35l274.82-46.57c12.44-2.11,24.24,6.27,26.35,18.71l2.85,16.79
						C750.15,885.2,741.77,897,729.33,899.11z"/>
					<path class="st6" d="M345.37,942.94l-108.42,18.37c-7.15,1.21-13.93-3.6-15.14-10.75l-18.37-108.42
						c-1.21-7.15,3.6-13.93,10.75-15.14l108.42-18.37c7.15-1.21,13.93,3.6,15.14,10.75l18.37,108.42
						C357.33,934.95,352.52,941.73,345.37,942.94z"/>
				</g>
			</g>
		</g>
	</g>
</g>
<g>
	<polygon class="st8" points="527.17,374.57 515.21,436.11 356.43,489.77 465.63,362.62 	"/>
	<path class="st6" d="M535.1,369.22l-13.06,67.26l-116.39,39.33c-15.94,5.39-28.81-13.69-17.85-26.45l80.04-93.2L535.1,369.22z"/>
	<path class="st9" d="M928.19,44.99l-130.2,87.85L530.82,313.11l-59.18,39.93c-13.07,8.82-16.52,26.57-7.7,39.65l22.82,33.82
		c8.82,13.07,26.57,16.52,39.65,7.7l59.18-39.93l267.17-180.27l49.6-33.47l11.41,16.91l-90.18,60.85c-4.67,3.15-5.9,9.49-2.75,14.16
		c3.15,4.67,9.49,5.9,14.16,2.75l172.88-116.64c4.67-3.15,5.9-9.49,2.75-14.16c-3.15-4.67-9.49-5.9-14.16-2.75l-16.75,11.3
		l-11.41-16.91l14.65-9.89c22.41-15.12,28.32-45.55,13.2-67.97l0,0C981.04,35.78,950.61,29.87,928.19,44.99z"/>
</g>
</svg>
