<?xml version="1.0" standalone="no"?><!DOCTYPE svg PUBLIC "-//W3C//DTD SVG 1.1//EN" "http://www.w3.org/Graphics/SVG/1.1/DTD/svg11.dtd"><svg t="1609380140458" class="icon" viewBox="0 0 1102 1024" version="1.1" xmlns="http://www.w3.org/2000/svg" p-id="11814" xmlns:xlink="http://www.w3.org/1999/xlink" width="137.75" height="128"><defs><style type="text/css"></style></defs><path d="M1102.769231 593.92V1024H0V593.92a831.566769 831.566769 0 0 0 70.892308-166.833231c22.291692-115.396923 30.72-233.393231 46.237538-350.050461A668.356923 668.356923 0 0 1 136.585846 0h828.809846a119.177846 119.177846 0 0 1 13.154462 29.932308c12.130462 90.899692 25.836308 181.641846 33.949538 272.935384A588.563692 588.563692 0 0 0 1102.769231 593.92zM123.352615 568.635077H335.005538a37.021538 37.021538 0 0 1 44.977231 37.888 171.401846 171.401846 0 0 0 342.331077 1.417846 38.360615 38.360615 0 0 1 47.261539-39.384615H979.337846L918.528 70.025846H184.004923l-60.731077 498.451692z m429.764923-438.272h215.748924c24.260923 0 44.977231 4.568615 44.97723 33.634461s-20.795077 33.634462-44.97723 33.555693H333.902769c-24.182154 0-44.977231-4.411077-44.977231-33.555693s20.795077-33.713231 44.977231-33.634461h219.214769z m-1.102769 203.460923H336.344615c-25.127385 0-47.891692-3.150769-47.261538-34.658462 0.551385-29.223385 22.134154-32.531692 46.001231-32.531692h431.497846c25.127385 0 47.891692 3.072 47.261538 34.579692-0.472615 29.302154-22.134154 32.689231-45.922461 32.610462h-215.827693z m-4.017231 136.507077h-212.676923c-25.363692 0-47.734154-3.859692-46.631384-35.288615 1.024-29.302154 23.079385-31.507692 46.631384-31.507693h431.497847c25.442462 0 47.734154 3.938462 46.631384 35.288616-1.024 29.302154-23.000615 31.980308-46.631384 31.901538H547.682462z" p-id="11815" fill="#ffffff"></path></svg>