<?xml version="1.0" encoding="utf-8"?>
<!-- Generator: Adobe Illustrator 23.0.0, SVG Export Plug-In . SVG Version: 6.00 Build 0)  -->
<svg version="1.1" xmlns="http://www.w3.org/2000/svg" xmlns:xlink="http://www.w3.org/1999/xlink" x="0px" y="0px"
	 viewBox="0 0 1024 1024" style="enable-background:new 0 0 1024 1024;" xml:space="preserve">
<style type="text/css">
	.st0{fill:url(#SVGID_1_);}
	.st1{clip-path:url(#SVGID_3_);}
	.st2{fill:#FCE0D2;}
	.st3{fill:#FFFFFF;}
	.st4{clip-path:url(#SVGID_5_);fill:#FDEEE5;}
	.st5{fill:#E8C3B0;}
	.st6{fill:#442414;}
	.st7{fill:#2B140A;}
	.st8{fill:#F49E1A;}
	.st9{fill:#C88012;}
	.st10{fill:#BC7D44;}
	.st11{fill:#965D28;}
</style>
<g id="图层_2">
</g>
<g id="图层_1">
	<linearGradient id="SVGID_1_" gradientUnits="userSpaceOnUse" x1="512" y1="47" x2="512" y2="977">
		<stop  offset="0" style="stop-color:#F9BEA0"/>
		<stop  offset="1" style="stop-color:#FAD8C8"/>
	</linearGradient>
	<circle class="st0" cx="512" cy="512" r="465"/>
	<g>
		<defs>
			<circle id="SVGID_2_" cx="512" cy="512" r="465"/>
		</defs>
		<clipPath id="SVGID_3_">
			<use xlink:href="#SVGID_2_"  style="overflow:visible;"/>
		</clipPath>
		<g class="st1">
			<path class="st2" d="M856.74,1125.39H236.61c-19.09,0-34.57-15.48-34.57-34.57V242.54c0-19.09,15.48-34.57,34.57-34.57h620.13
				c19.09,0,34.57,15.48,34.57,34.57v848.27C891.31,1109.91,875.83,1125.39,856.74,1125.39z"/>
			<path class="st3" d="M806.74,1175.39H186.61c-19.09,0-34.57-15.48-34.57-34.57V292.54c0-19.09,15.48-34.57,34.57-34.57h620.13
				c19.09,0,34.57,15.48,34.57,34.57v848.27C841.31,1159.91,825.83,1175.39,806.74,1175.39z"/>
			<g>
				<defs>
					<path id="SVGID_4_" d="M806.74,1175.39H186.61c-19.09,0-34.57-15.48-34.57-34.57V292.54c0-19.09,15.48-34.57,34.57-34.57
						h620.13c19.09,0,34.57,15.48,34.57,34.57v848.27C841.31,1159.91,825.83,1175.39,806.74,1175.39z"/>
				</defs>
				<clipPath id="SVGID_5_">
					<use xlink:href="#SVGID_4_"  style="overflow:visible;"/>
				</clipPath>
				<polyline class="st4" points="900.43,958.68 849.33,84.04 57.52,991.13 				"/>
			</g>
			<path class="st5" d="M616.52,422.98H283.54c-13.18,0-23.96-10.78-23.96-23.96v-15.04c0-13.18,10.78-23.96,23.96-23.96h332.98
				c13.18,0,23.96,10.78,23.96,23.96v15.04C640.48,412.19,629.7,422.98,616.52,422.98z"/>
			<path class="st5" d="M698.82,566.98H283.54c-13.18,0-23.96-10.78-23.96-23.96v-15.04c0-13.18,10.78-23.96,23.96-23.96h415.28
				c13.18,0,23.96,10.78,23.96,23.96v15.04C722.79,556.19,712,566.98,698.82,566.98z"/>
			<path class="st5" d="M582.22,710.98H283.54c-13.18,0-23.96-10.78-23.96-23.96v-15.04c0-13.18,10.78-23.96,23.96-23.96h298.68
				c13.18,0,23.96,10.78,23.96,23.96v15.04C606.19,700.19,595.4,710.98,582.22,710.98z"/>
			<path class="st5" d="M662.97,854.98H283.54c-13.18,0-23.96-10.78-23.96-23.96v-15.04c0-13.18,10.78-23.96,23.96-23.96h379.43
				c13.18,0,23.96,10.78,23.96,23.96v15.04C686.94,844.19,676.15,854.98,662.97,854.98z"/>
		</g>
	</g>
	<g>
		<path class="st6" d="M1008.94,179.31c17.52-19.15,16.2-49.15-2.95-66.67l-74.74-68.41c-19.15-17.52-49.15-16.2-66.67,2.95
			l-25.3,27.65l144.37,132.13L1008.94,179.31z"/>
		<path class="st7" d="M1005.99,112.64l-74.74-68.41c-8.75-8-19.76-12.06-30.81-12.3c2.7,1.61,5.27,3.51,7.68,5.71l74.74,68.41
			c19.15,17.52,20.47,47.53,2.95,66.67l-18.04,19.71l15.87,14.53l25.3-27.65C1026.46,160.17,1025.13,130.16,1005.99,112.64z"/>
		<polygon class="st8" points="717.5,497.75 576.41,362.03 830.83,84.04 975.2,216.18 		"/>
		<polygon class="st9" points="717.5,497.75 689.42,462.64 921.82,208.71 830.83,84.04 975.2,216.18 		"/>
		<polygon class="st10" points="717.5,497.75 532.86,554.55 576.41,362.03 622.98,359.97 645.05,414.5 708.1,442.23 710.66,476.44 
					"/>
		<polyline class="st11" points="708.1,442.23 710.66,476.44 717.5,497.75 532.86,554.55 680,474.5 		"/>
		<polygon points="532.86,554.55 586.72,537.98 545.2,499.99 		"/>
	</g>
</g>
</svg>
