<?xml version="1.0" standalone="no"?><!DOCTYPE svg PUBLIC "-//W3C//DTD SVG 1.1//EN" "http://www.w3.org/Graphics/SVG/1.1/DTD/svg11.dtd"><svg t="1609925247785" class="icon" viewBox="0 0 1024 1024" version="1.1" xmlns="http://www.w3.org/2000/svg" p-id="7148" xmlns:xlink="http://www.w3.org/1999/xlink" width="200" height="200"><defs><style type="text/css"></style></defs><path d="M498.944 602.926545c-149.643636 0-271.406545-121.762909-271.406545-271.406545S349.300364 60.113455 498.944 60.113455s271.406545 121.739636 271.406545 271.406545-121.739636 271.406545-271.406545 271.406545z m0-500.596363c-126.370909 0-229.189818 102.818909-229.189818 229.189818 0 126.394182 102.818909 229.213091 229.189818 229.213091 126.394182 0 229.213091-102.818909 229.213091-229.213091 0-126.370909-102.818909-229.189818-229.213091-229.189818zM77.847273 985.181091H35.630545a426.938182 426.938182 0 0 1 260.724364-393.728l16.477091 38.842182A384.861091 384.861091 0 0 0 77.847273 985.181091z" p-id="7149"></path><path d="M773.469091 737.000727a385.093818 385.093818 0 0 0-292.119273-134.074182v-42.216727c124.602182 0 242.734545 54.202182 324.119273 148.736l-32 27.554909zM655.383273 768.232727h271.453091v42.216728H655.383273zM655.383273 885.434182H963.258182v42.216727H655.383273z" p-id="7150"></path></svg>