<?xml version="1.0" standalone="no"?><!DOCTYPE svg PUBLIC "-//W3C//DTD SVG 1.1//EN" "http://www.w3.org/Graphics/SVG/1.1/DTD/svg11.dtd"><svg t="1605896486067" class="icon" viewBox="0 0 1024 1024" version="1.1" xmlns="http://www.w3.org/2000/svg" p-id="28855" xmlns:xlink="http://www.w3.org/1999/xlink" width="128" height="128"><defs><style type="text/css"></style></defs><path d="M940.19584 274.78016H855.04V144.384A144.384 144.384 0 0 0 710.656 0h-565.248A144.384 144.384 0 0 0 1.024 144.384v735.232A144.384 144.384 0 0 0 145.408 1024h794.78784A82.86208 82.86208 0 0 0 1022.976 941.21984v-583.68a82.86208 82.86208 0 0 0-82.78016-82.75968zM119.808 182.272a24.576 24.576 0 0 1 24.576-24.576h233.472a24.576 24.576 0 0 1 24.576 24.576v145.408a24.576 24.576 0 0 1-24.576 24.576H144.384a24.576 24.576 0 0 1-24.576-24.576z m671.744 601.088a37.9904 37.9904 0 0 1-37.888 37.888h-595.968A37.9904 37.9904 0 0 1 119.808 783.36 37.9904 37.9904 0 0 1 157.696 745.472h595.968a37.9904 37.9904 0 0 1 37.888 37.888z m0-234.496a37.9904 37.9904 0 0 1-37.888 37.888h-595.968A37.9904 37.9904 0 0 1 119.808 548.864a37.9904 37.9904 0 0 1 37.888-37.888h595.968A37.9904 37.9904 0 0 1 791.552 548.864z m0-234.496a37.9904 37.9904 0 0 1-37.888 37.888h-192.512a37.9904 37.9904 0 0 1-37.888-37.888 37.9904 37.9904 0 0 1 37.888-37.888h192.512a37.9904 37.9904 0 0 1 37.888 37.888z m190.464 626.85184A41.86112 41.86112 0 0 1 940.19584 983.04H855.04V315.74016h85.15584A41.86112 41.86112 0 0 1 982.016 357.53984z" p-id="28856" fill="#ffffff"></path></svg>