<?xml version="1.0" standalone="no"?><!DOCTYPE svg PUBLIC "-//W3C//DTD SVG 1.1//EN" "http://www.w3.org/Graphics/SVG/1.1/DTD/svg11.dtd"><svg t="1605897104670" class="icon" viewBox="0 0 1024 1024" version="1.1" xmlns="http://www.w3.org/2000/svg" p-id="38571" xmlns:xlink="http://www.w3.org/1999/xlink" width="128" height="128"><defs><style type="text/css"></style></defs><path d="M931.947789 628.089263H808.96v-20.587789a92.213895 92.213895 0 0 0-91.243789-91.621053c-34.277053-0.323368-68.554105 0-102.777264 0H537.276632V449.805474h108.921263a65.050947 65.050947 0 0 0 65.212631-65.050948V118.891789A65.050947 65.050947 0 0 0 646.197895 53.894737H380.335158A64.997053 64.997053 0 0 0 315.284211 118.891789V384.808421a64.997053 64.997053 0 0 0 65.050947 64.997053H485.052632v65.805473H305.367579a95.609263 95.609263 0 0 0-31.636211 4.634948 93.507368 93.507368 0 0 0-57.882947 57.882947 129.347368 129.347368 0 0 0-4.634947 43.654737v4.473263H92.052211A65.050947 65.050947 0 0 0 26.947368 691.307789v265.862737a65.050947 65.050947 0 0 0 65.104843 64.997053h265.862736a65.050947 65.050947 0 0 0 65.050948-64.997053v-265.862737a65.050947 65.050947 0 0 0-65.050948-65.050947H263.275789v-18.216421-5.389474-1.509052-0.592842a9.108211 9.108211 0 0 0 0-1.616842v0.91621a63.326316 63.326316 0 0 1 2.15579-7.922526 27.755789 27.755789 0 0 1 0.808421-1.886316 66.452211 66.452211 0 0 1 3.557053-6.144c0.754526-1.185684 1.724632-2.263579 2.425263-3.449263l-0.646737 1.077895c1.778526-1.994105 3.718737-3.718737 5.389474-5.389474 0.646737-0.485053 1.239579-0.970105 1.886315-1.347369A65.266526 65.266526 0 0 1 285.642105 571.284211h-1.077894c1.077895-0.269474 2.263579-0.862316 3.341473-1.239579a80.303158 80.303158 0 0 1 7.976421-2.101895c1.024 0 2.101895-0.269474 3.018106-0.323369H724.237474a65.158737 65.158737 0 0 1 7.006315 1.886316c1.347368 0.431158 2.694737 1.131789 4.042106 1.455158h-1.077895a65.428211 65.428211 0 0 1 6.144 3.557053l1.562947 1.077894 0.970106 1.077895a62.571789 62.571789 0 0 1 4.958315 4.958316l-0.646736-1.077895c0.592842 1.024 1.401263 1.940211 2.048 2.856421a68.015158 68.015158 0 0 1 3.934315 6.736842c0 0.431158 0.485053 1.077895 0.754527 1.724632a8.677053 8.677053 0 0 1 0.431158 1.293474 64.242526 64.242526 0 0 1 1.886315 7.006315v0.377264a11.533474 11.533474 0 0 0 0-1.509053c0 0.970105 0 1.994105 0.269474 2.964211v25.977263H666.138947a65.050947 65.050947 0 0 0-65.050947 65.050947v265.862737A65.050947 65.050947 0 0 0 666.138947 1024h265.808842A65.050947 65.050947 0 0 0 997.052632 959.002947v-265.862736a64.997053 64.997053 0 0 0-65.104843-64.997053z m0 0" fill="#ffffff" p-id="38572"></path></svg>