<?xml version="1.0" standalone="no"?><!DOCTYPE svg PUBLIC "-//W3C//DTD SVG 1.1//EN" "http://www.w3.org/Graphics/SVG/1.1/DTD/svg11.dtd"><svg t="1605897034493" class="icon" viewBox="0 0 1024 1024" version="1.1" xmlns="http://www.w3.org/2000/svg" p-id="35408" xmlns:xlink="http://www.w3.org/1999/xlink" width="128" height="128"><defs><style type="text/css"></style></defs><path d="M537.6 700.032h64a64 64 0 0 1 64 64V896a64 64 0 0 1-64 64H422.4a64 64 0 0 1-64-64v-132.032a64 64 0 0 1 64-64h64V532.032h-256a51.52 51.52 0 0 0-50.88 45.888l-0.32 6.08-0.064 115.968H243.2a64 64 0 0 1 64 64V896a64 64 0 0 1-64 64H64a64 64 0 0 1-64-64v-132.032a64 64 0 0 1 64-64h64V584C128 526.592 173.824 480 230.4 480h563.2c56.576 0 102.4 46.592 102.4 104v115.968h64a64 64 0 0 1 64 64V896a64 64 0 0 1-64 64h-179.2a64 64 0 0 1-64-64v-132.032a64 64 0 0 1 64-64h63.936l0.064-115.968a51.584 51.584 0 0 0-51.2-52.032h-256v168.064z m-313.6 51.968H83.2a32 32 0 0 0-31.488 26.24l-0.512 5.76v92.032a32 32 0 0 0 26.24 31.424l5.76 0.512h140.8a32 32 0 0 0 31.488-26.24l0.512-5.76V784a32 32 0 0 0-32-32z m358.4 0H441.6a32 32 0 0 0-31.488 26.24l-0.512 5.76v92.032a32 32 0 0 0 26.24 31.424l5.76 0.512h140.8a32 32 0 0 0 31.488-26.24l0.512-5.76V784a32 32 0 0 0-32-32z m358.4 0h-140.8a32 32 0 0 0-31.488 26.24l-0.512 5.76v92.032a32 32 0 0 0 26.24 31.424l5.76 0.512h140.8a32 32 0 0 0 31.488-26.24l0.512-5.76V784a32 32 0 0 0-32-32zM652.8 64a64 64 0 0 1 64 64v184a64 64 0 0 1-64 64H537.6V480h-51.2V376H371.2a64 64 0 0 1-64-64V128a64 64 0 0 1 64-64h281.6z m-19.2 52.032H390.4a32 32 0 0 0-31.488 26.24l-0.512 5.76v144a32 32 0 0 0 26.24 31.424l5.76 0.512h243.2a32 32 0 0 0 31.488-26.24l0.512-5.76v-144a32 32 0 0 0-32-32z" fill="#ffffff" p-id="35409"></path></svg>