<?xml version="1.0" standalone="no"?><!DOCTYPE svg PUBLIC "-//W3C//DTD SVG 1.1//EN" "http://www.w3.org/Graphics/SVG/1.1/DTD/svg11.dtd"><svg t="1605897673801" class="icon" viewBox="0 0 1024 1024" version="1.1" xmlns="http://www.w3.org/2000/svg" p-id="68486" xmlns:xlink="http://www.w3.org/1999/xlink" width="128" height="128"><defs><style type="text/css"></style></defs><path d="M925.883733 564.565333l77.568-48.554666a34.1504 34.1504 0 0 0 15.172267-36.522667l-37.973333-166.6048a34.133333 34.133333 0 0 0-29.508267-26.333867l-91.0848-10.1376a34.184533 34.184533 0 0 1-22.9376-12.663466l-15.240533-19.1488a34.0992 34.0992 0 0 1-7.202134-25.156267l10.461867-90.897067a34.167467 34.167467 0 0 0-19.0976-34.6624l-153.975467-74.1376a34.133333 34.133333 0 0 0-38.980266 6.656l-64.682667 64.887467a34.1504 34.1504 0 0 1-24.1664 10.0352h-24.4224a34.133333 34.133333 0 0 1-24.1664-10.0352l-64.682667-64.887467a34.133333 34.133333 0 0 0-38.980266-6.656l-153.941334 74.1376a34.133333 34.133333 0 0 0-19.0976 34.645334l10.427734 90.999466a34.133333 34.133333 0 0 1-7.2192 25.156267l-15.189334 19.063467a34.065067 34.065067 0 0 1-22.920533 12.6464l-91.136 10.154666a34.133333 34.133333 0 0 0-29.508267 26.333867L5.393067 479.488a34.133333 34.133333 0 0 0 15.172266 36.522667l77.602134 48.571733c7.697067 4.8128 13.141333 12.4928 15.172266 21.333333l5.444267 23.842134a34.167467 34.167467 0 0 1-4.4032 25.821866l-48.861867 77.431467a34.133333 34.133333 0 0 0 2.184534 39.492267l106.5984 133.632a34.1504 34.1504 0 0 0 38.007466 10.922666l86.4256-30.395733a34.133333 34.133333 0 0 1 26.112 1.4336l21.981867 10.564267a34.133333 34.133333 0 0 1 17.442133 19.541333l30.088534 86.493867a34.133333 34.133333 0 0 0 32.238933 22.920533h170.888533a34.133333 34.133333 0 0 0 32.238934-22.920533l30.088533-86.493867a34.0992 34.0992 0 0 1 17.442133-19.541333l21.981867-10.564267a34.082133 34.082133 0 0 1 26.112-1.4336l86.4256 30.395733a34.133333 34.133333 0 0 0 38.007467-10.922666l106.5984-133.632a34.133333 34.133333 0 0 0 2.184533-39.492267l-48.878933-77.448533a34.082133 34.082133 0 0 1-4.420267-25.787734l5.4272-23.825066c2.030933-8.874667 7.492267-16.554667 15.189333-21.384534z m-386.286933 106.1888a164.7616 164.7616 0 0 1-189.917867-190.037333c11.093333-68.215467 66.048-123.272533 134.229334-134.536533a164.744533 164.744533 0 0 1 190.293333 190.481066c-11.3152 68.164267-66.4064 123.050667-134.6048 134.0928z" fill="#ffffff" p-id="68487"></path></svg>