<?xml version="1.0" standalone="no"?><!DOCTYPE svg PUBLIC "-//W3C//DTD SVG 1.1//EN" "http://www.w3.org/Graphics/SVG/1.1/DTD/svg11.dtd"><svg t="1605897178349" class="icon" viewBox="0 0 1024 1024" version="1.1" xmlns="http://www.w3.org/2000/svg" p-id="42786" xmlns:xlink="http://www.w3.org/1999/xlink" width="128" height="128"><defs><style type="text/css"></style></defs><path d="M962.42128 386.732858h-123.858266a350.940182 350.940182 0 0 0-54.989515-92.949693l62.590221-108.411204a43.364482 43.364482 0 0 0-15.866112-59.216144L689.193255 44.693883a43.350032 43.350032 0 0 0-59.216144 15.866111l-63.449996 109.906781a352.031158 352.031158 0 0 0-105.607902 0L397.469216 60.559994a43.350032 43.350032 0 0 0-59.216143-15.866111L197.148719 126.148592a43.364482 43.364482 0 0 0-15.866111 59.216144l62.590221 108.403979a351.019657 351.019657 0 0 0-54.989516 92.956918H65.025048a43.350032 43.350032 0 0 0-43.350032 43.350032v162.931094a43.350032 43.350032 0 0 0 43.350032 43.350032h120.267438a350.456107 350.456107 0 0 0 55.50249 98.281747l-59.505143 103.079151a43.350032 43.350032 0 0 0 15.866111 59.216143l141.097129 81.46916a43.364482 43.364482 0 0 0 59.216143-15.873337l58.594793-101.489649c38.090228 6.358005 77.220857 6.358005 115.311084 0l58.594793 101.489649a43.364482 43.364482 0 0 0 59.216144 15.873337l141.104353-81.46916a43.328357 43.328357 0 0 0 15.866112-59.216143l-59.512369-103.079151a350.282707 350.282707 0 0 0 55.502491-98.281747h120.267438a43.350032 43.350032 0 0 0 43.350032-43.350032v-162.923869a43.342807 43.342807 0 0 0-43.342807-43.350032zM708.216694 516.147153c0 107.247979-87.249164 194.497142-194.497143 194.497142-107.255204 0-194.504367-87.249164-194.504367-194.497142s87.249164-194.497142 194.504367-194.497142c107.247979 0 194.497142 87.249164 194.497143 194.497142z" fill="#ffffff" p-id="42787"></path></svg>