<?xml version="1.0" encoding="utf-8"?>
<!-- Generator: Adobe Illustrator 23.0.0, SVG Export Plug-In . SVG Version: 6.00 Build 0)  -->
<svg version="1.1" id="相册" xmlns="http://www.w3.org/2000/svg" xmlns:xlink="http://www.w3.org/1999/xlink" x="0px" y="0px"
	 viewBox="0 0 1024 1024" style="enable-background:new 0 0 1024 1024;" xml:space="preserve">
<style type="text/css">
	.st0{fill:url(#SVGID_1_);}
	.st1{clip-path:url(#SVGID_3_);}
	.st2{fill:#EFAE47;}
	.st3{fill:#FFFFFF;}
	.st4{fill:#F59166;}
	.st5{fill:#D9815C;}
	.st6{clip-path:url(#SVGID_5_);}
	.st7{fill:#FACD79;}
	.st8{fill:#EBC172;}
	.st9{fill:#F6C575;}
	.st10{fill:#E8BA6F;}
</style>
<linearGradient id="SVGID_1_" gradientUnits="userSpaceOnUse" x1="512" y1="47" x2="512" y2="977">
	<stop  offset="0" style="stop-color:#FCE5B9"/>
	<stop  offset="1" style="stop-color:#FEF7E8"/>
</linearGradient>
<circle class="st0" cx="512" cy="512" r="465"/>
<g>
	<defs>
		<circle id="SVGID_2_" cx="512" cy="512" r="465"/>
	</defs>
	<clipPath id="SVGID_3_">
		<use xlink:href="#SVGID_2_"  style="overflow:visible;"/>
	</clipPath>
	<g class="st1">
		<polygon class="st2" points="466.3,333.64 417.36,284.61 216.94,284.61 216.94,333.64 216.94,337.73 216.94,874.12 939.39,874.12 
			939.39,333.64 		"/>
		<path class="st3" d="M879.73,848.43H278.56c-16.25,0-29.42-13.17-29.42-29.42V406.19c0-16.25,13.17-29.42,29.42-29.42h601.17
			c16.25,0,29.42,13.17,29.42,29.42v412.82C909.14,835.26,895.97,848.43,879.73,848.43z"/>
	</g>
</g>
<g>
	<path class="st4" d="M758.14,74.11c-0.02,0-0.04,0-0.06,0c-0.34,0.02-0.67,0.05-1,0.07c-0.33,0.02-0.65,0.04-0.98,0.07
		c-0.03,0-0.06,0.01-0.1,0.01c-0.42,0.04-0.84,0.1-1.25,0.15c-0.27,0.03-0.53,0.06-0.8,0.1c-0.45,0.07-0.9,0.15-1.35,0.23
		c-0.19,0.03-0.37,0.06-0.56,0.09c-0.05,0.01-0.09,0.02-0.14,0.03c-0.46,0.09-0.91,0.19-1.36,0.3c-0.17,0.04-0.35,0.07-0.52,0.11
		c-0.05,0.01-0.11,0.03-0.16,0.04c-0.44,0.11-0.87,0.23-1.3,0.35c-0.24,0.07-0.48,0.13-0.72,0.21c-0.4,0.12-0.8,0.25-1.2,0.39
		c-0.27,0.09-0.54,0.18-0.81,0.27c-0.36,0.13-0.71,0.26-1.06,0.4c-0.22,0.08-0.43,0.16-0.65,0.24c-0.09,0.04-0.18,0.08-0.27,0.12
		c-0.31,0.13-0.61,0.26-0.91,0.4c-0.34,0.15-0.69,0.3-1.03,0.46c-0.26,0.12-0.52,0.25-0.78,0.38c-0.27,0.13-0.53,0.26-0.8,0.39
		c-0.11,0.06-0.21,0.12-0.31,0.17c-0.22,0.12-0.44,0.25-0.66,0.37c-0.39,0.22-0.78,0.44-1.16,0.67c-0.2,0.12-0.4,0.25-0.6,0.37
		c-0.39,0.24-0.78,0.49-1.16,0.75c-0.2,0.13-0.39,0.27-0.58,0.41c-0.37,0.26-0.74,0.52-1.11,0.79c-0.22,0.16-0.43,0.33-0.65,0.5
		c-0.33,0.26-0.66,0.51-0.98,0.77c-0.28,0.23-0.55,0.47-0.83,0.71c-0.25,0.22-0.5,0.42-0.75,0.65c-0.52,0.47-1.03,0.96-1.53,1.45
		l-135.8,135.8c-16.66,16.66-16.66,43.67,0,60.33v0c16.66,16.66,43.67,16.66,60.33,0l62.98-62.98v391.61
		c0,23.56,19.1,42.66,42.66,42.66V74.06C759.5,74.06,758.82,74.08,758.14,74.11z"/>
	<path class="st5" d="M802.84,611.33V219.71l62.98,62.98c16.66,16.66,43.67,16.66,60.33,0l0,0c16.66-16.66,16.66-43.67,0-60.33
		l-135.8-135.8c-0.5-0.5-1.01-0.98-1.53-1.45c-0.25-0.22-0.5-0.43-0.75-0.65c-0.28-0.24-0.55-0.48-0.83-0.71
		c-0.32-0.27-0.66-0.52-0.98-0.77c-0.22-0.17-0.43-0.34-0.65-0.5c-0.37-0.27-0.74-0.53-1.11-0.79c-0.19-0.14-0.39-0.27-0.58-0.41
		c-0.38-0.26-0.77-0.5-1.16-0.75c-0.2-0.12-0.39-0.25-0.6-0.37c-0.38-0.23-0.77-0.45-1.16-0.67c-0.22-0.12-0.44-0.25-0.66-0.37
		c-0.11-0.06-0.21-0.12-0.31-0.17c-0.26-0.14-0.53-0.26-0.8-0.39c-0.26-0.13-0.51-0.26-0.78-0.38c-0.34-0.16-0.68-0.31-1.03-0.46
		c-0.3-0.13-0.6-0.27-0.91-0.4c-0.09-0.04-0.18-0.08-0.27-0.12c-0.21-0.09-0.43-0.16-0.65-0.24c-0.35-0.14-0.7-0.27-1.06-0.4
		c-0.27-0.1-0.54-0.18-0.81-0.27c-0.4-0.13-0.79-0.26-1.19-0.39c-0.24-0.07-0.48-0.14-0.72-0.21c-0.43-0.12-0.86-0.24-1.3-0.35
		c-0.05-0.01-0.11-0.03-0.16-0.04c-0.17-0.04-0.35-0.07-0.52-0.11c-0.45-0.1-0.9-0.21-1.36-0.3c-0.05-0.01-0.09-0.02-0.14-0.03
		c-0.18-0.04-0.37-0.06-0.56-0.09c-0.45-0.08-0.9-0.16-1.35-0.23c-0.27-0.04-0.53-0.07-0.8-0.1c-0.42-0.05-0.83-0.11-1.25-0.15
		c-0.03,0-0.06-0.01-0.1-0.01c-0.33-0.03-0.65-0.05-0.98-0.07c-0.33-0.02-0.67-0.06-1-0.07c-0.02,0-0.04,0-0.06,0
		c-0.68-0.03-1.36-0.05-2.05-0.05l0,0v579.92l0,0C783.74,653.98,802.84,634.89,802.84,611.33z"/>
</g>
<g>
	<defs>
		<circle id="SVGID_4_" cx="512" cy="512" r="465"/>
	</defs>
	<clipPath id="SVGID_5_">
		<use xlink:href="#SVGID_4_"  style="overflow:visible;"/>
	</clipPath>
	<g class="st6">
		<polygon class="st7" points="844.5,431.5 124.42,431.5 199.46,790.48 336.24,790.48 		"/>
		<polygon class="st8" points="921.91,790.48 846.87,431.5 844.5,431.5 336.24,790.48 		"/>
		<polygon class="st9" points="217.82,874.12 336.24,790.48 199.46,790.48 216.94,874.12 		"/>
		<polygon class="st10" points="217.82,874.12 939.39,874.12 921.91,790.48 336.24,790.48 		"/>
	</g>
</g>
</svg>
